#Comment line ignore any data following # character 
#Hierarchical Translation and Rotation (.htr) file 
[Header]	
#Header keywords are followed by a single value 
FileType HTR		#Single word string
DataType HTRS		#Translation followed by rotation and scale data
FileVersion 1		#integer
NumSegments 64		#integer
NumFrames 3		#integer
DataFrameRate 30		#integer, data frame rate in this file
EulerRotationOrder ZYX
CalibrationUnits mm
RotationUnits Degrees
GlobalAxisofGravity Y
BoneLengthAxis Y
ScaleFactor 1.00
[SegmentNames&Hierarchy]
#CHILD	PARENT
Pinger_Root GLOBAL
Pelvis Pinger_Root
L_Hip Pelvis
R_Hip Pelvis
Rear_Leg01 Pelvis
Spine1 Pelvis
L_Leg01 L_Hip
L_Leg02 L_Leg01
L_Leg03 L_Leg02
L_Foot L_Leg03
L_Toe1_01 L_Foot
L_Toe2_01 L_Foot
L_Toe3_01 L_Foot
planeAlignerLeft L_Foot
L_Toe1_02 L_Toe1_01
L_Toe1_03 L_Toe1_02
L_Toe2_02 L_Toe2_01
L_Toe2_03 L_Toe2_02
L_Toe3_02 L_Toe3_01
L_Toe3_03 L_Toe3_02
planeLockWeightLeft planeAlignerLeft
R_Leg01 R_Hip
R_Leg02 R_Leg01
R_Leg03 R_Leg02
R_Foot R_Leg03
planeAlignerRight R_Foot
R_Toe1_01 R_Foot
R_Toe2_01 R_Foot
R_Toe3_01 R_Foot
planeLockWeightRight planeAlignerRight
R_Toe1_02 R_Toe1_01
R_Toe1_03 R_Toe1_02
R_Toe2_02 R_Toe2_01
R_Toe2_03 R_Toe2_02
R_Toe3_02 R_Toe3_01
R_Toe3_03 R_Toe3_02
Rear_Leg02 Rear_Leg01
Rear_Leg03 Rear_Leg02
Rear_Leg04 Rear_Leg03
Rear_Foot Rear_Leg04
planeAlignerCenter Rear_Foot
Rear_Toe1_01 Rear_Foot
Rear_Toe2_01 Rear_Foot
Rear_Toe3_01 Rear_Foot
planeLockWeightCenter planeAlignerCenter
Rear_Toe1_02 Rear_Toe1_01
Rear_Toe1_03 Rear_Toe1_02
Rear_Toe2_02 Rear_Toe2_01
Rear_Toe2_03 Rear_Toe2_02
Rear_Toe3_02 Rear_Toe3_01
Rear_Toe3_03 Rear_Toe3_02
Back_Bone Spine1
Head Spine1
Motor_Bone Back_Bone
Ping_Mechanism Back_Bone
BN_LookIK Head
bottomMouth Head
L_Mouth01 Head
L_mouthFront Head
mouthGun Head
R_Mouth01 Head
R_mouthFront Head
TopMouth Head
weapon_bone Head
[BasePosition]
#SegmentName Tx, Ty, Tz, Rx, Ry, Rz, BoneLength
Pinger_Root 0.000000 0.000000 0.000000 -90.000000 0.000000 0.000000 10.000000 
Pelvis 0.000000 0.000000 0.000000 0.000000 0.000000 0.000000 10.000000 
L_Hip 0.000000 0.000000 0.000000 0.000000 0.000000 0.000000 10.000000 
R_Hip 0.000000 0.000000 0.000000 0.000000 0.000000 0.000000 10.000000 
Rear_Leg01 0.000000 0.000000 0.000000 0.000000 0.000000 0.000000 10.000000 
Spine1 0.000000 0.000000 0.000000 0.000000 0.000000 0.000000 10.000000 
L_Leg01 0.000000 0.000000 0.000000 0.000000 0.000000 0.000000 10.000000 
L_Leg02 0.000000 0.000000 0.000000 0.000000 0.000000 0.000000 10.000000 
L_Leg03 0.000000 0.000000 0.000000 0.000000 0.000000 0.000000 10.000000 
L_Foot 0.000000 0.000000 0.000000 0.000000 0.000000 0.000000 10.000000 
L_Toe1_01 0.000000 0.000000 0.000000 0.000000 0.000000 0.000000 10.000000 
L_Toe2_01 0.000000 0.000000 0.000000 0.000000 0.000000 0.000000 10.000000 
L_Toe3_01 0.000000 0.000000 0.000000 0.000000 0.000000 0.000000 10.000000 
planeAlignerLeft 0.000000 0.000000 0.000000 0.000000 0.000000 0.000000 10.000000 
L_Toe1_02 0.000000 0.000000 0.000000 0.000000 0.000000 0.000000 10.000000 
L_Toe1_03 0.000000 0.000000 0.000000 0.000000 0.000000 0.000000 10.000000 
L_Toe2_02 0.000000 0.000000 0.000000 0.000000 0.000000 0.000000 10.000000 
L_Toe2_03 0.000000 0.000000 0.000000 0.000000 0.000000 0.000000 10.000000 
L_Toe3_02 0.000000 0.000000 0.000000 0.000000 0.000000 0.000000 10.000000 
L_Toe3_03 0.000000 0.000000 0.000000 0.000000 0.000000 0.000000 10.000000 
planeLockWeightLeft 0.000000 0.000000 0.000000 0.000000 0.000000 0.000000 10.000000 
R_Leg01 0.000000 0.000000 0.000000 0.000000 0.000000 0.000000 10.000000 
R_Leg02 0.000000 0.000000 0.000000 0.000000 0.000000 0.000000 10.000000 
R_Leg03 0.000000 0.000000 0.000000 0.000000 0.000000 0.000000 10.000000 
R_Foot 0.000000 0.000000 0.000000 0.000000 0.000000 0.000000 10.000000 
planeAlignerRight 0.000000 0.000000 0.000000 0.000000 0.000000 0.000000 10.000000 
R_Toe1_01 0.000000 0.000000 0.000000 0.000000 0.000000 0.000000 10.000000 
R_Toe2_01 0.000000 0.000000 0.000000 0.000000 0.000000 0.000000 10.000000 
R_Toe3_01 0.000000 0.000000 0.000000 0.000000 0.000000 0.000000 10.000000 
planeLockWeightRight 0.000000 0.000000 0.000000 0.000000 0.000000 0.000000 10.000000 
R_Toe1_02 0.000000 0.000000 0.000000 0.000000 0.000000 0.000000 10.000000 
R_Toe1_03 0.000000 0.000000 0.000000 0.000000 0.000000 0.000000 10.000000 
R_Toe2_02 0.000000 0.000000 0.000000 0.000000 0.000000 0.000000 10.000000 
R_Toe2_03 0.000000 0.000000 0.000000 0.000000 0.000000 0.000000 10.000000 
R_Toe3_02 0.000000 0.000000 0.000000 0.000000 0.000000 0.000000 10.000000 
R_Toe3_03 0.000000 0.000000 0.000000 0.000000 0.000000 0.000000 10.000000 
Rear_Leg02 0.000000 0.000000 0.000000 0.000000 0.000000 0.000000 10.000000 
Rear_Leg03 0.000000 0.000000 0.000000 0.000000 0.000000 0.000000 10.000000 
Rear_Leg04 0.000000 0.000000 0.000000 0.000000 0.000000 0.000000 10.000000 
Rear_Foot 0.000000 0.000000 0.000000 0.000000 0.000000 0.000000 10.000000 
planeAlignerCenter 0.000000 0.000000 0.000000 0.000000 0.000000 0.000000 10.000000 
Rear_Toe1_01 0.000000 0.000000 0.000000 0.000000 0.000000 0.000000 10.000000 
Rear_Toe2_01 0.000000 0.000000 0.000000 0.000000 0.000000 0.000000 10.000000 
Rear_Toe3_01 0.000000 0.000000 0.000000 0.000000 0.000000 0.000000 10.000000 
planeLockWeightCenter 0.000000 0.000000 0.000000 0.000000 0.000000 0.000000 10.000000 
Rear_Toe1_02 0.000000 0.000000 0.000000 0.000000 0.000000 0.000000 10.000000 
Rear_Toe1_03 0.000000 0.000000 0.000000 0.000000 0.000000 0.000000 10.000000 
Rear_Toe2_02 0.000000 0.000000 0.000000 0.000000 0.000000 0.000000 10.000000 
Rear_Toe2_03 0.000000 0.000000 0.000000 0.000000 0.000000 0.000000 10.000000 
Rear_Toe3_02 0.000000 0.000000 0.000000 0.000000 0.000000 0.000000 10.000000 
Rear_Toe3_03 0.000000 0.000000 0.000000 0.000000 0.000000 0.000000 10.000000 
Back_Bone 0.000000 0.000000 0.000000 0.000000 0.000000 0.000000 10.000000 
Head 0.000000 0.000000 0.000000 0.000000 0.000000 0.000000 10.000000 
Motor_Bone 0.000000 0.000000 0.000000 0.000000 0.000000 0.000000 10.000000 
Ping_Mechanism 0.000000 0.000000 0.000000 0.000000 0.000000 0.000000 10.000000 
BN_LookIK 0.000000 0.000000 0.000000 0.000000 0.000000 0.000000 10.000000 
bottomMouth 0.000000 0.000000 0.000000 0.000000 0.000000 0.000000 10.000000 
L_Mouth01 0.000000 0.000000 0.000000 0.000000 0.000000 0.000000 10.000000 
L_mouthFront 0.000000 0.000000 0.000000 0.000000 0.000000 0.000000 10.000000 
mouthGun 0.000000 0.000000 0.000000 0.000000 0.000000 0.000000 10.000000 
R_Mouth01 0.000000 0.000000 0.000000 0.000000 0.000000 0.000000 10.000000 
R_mouthFront 0.000000 0.000000 0.000000 0.000000 0.000000 0.000000 10.000000 
TopMouth 0.000000 0.000000 0.000000 0.000000 0.000000 0.000000 10.000000 
weapon_bone 0.000000 0.000000 0.000000 0.000000 0.000000 0.000000 10.000000 
#Beginning of Data. Separated by tabs
#Fr	Tx	Ty	Tz	Rx	Ry	Rz	SF
[Pinger_Root]
31 0.000000 0.000000 0.000000 -0.000075 -0.000000 -0.000020 0.000000
32 0.000000 0.000000 0.000000 -0.000075 -0.000000 -0.000020 0.000000
33 0.000000 0.000000 0.000000 -0.000075 -0.000000 -0.000020 0.000000
[Pelvis]
31 -334.411438 -428.025177 4762.083984 -55.515152 -69.598511 56.487579 4792.961426
32 -147.232025 -255.486908 4303.484375 -53.610329 -63.849434 57.246620 4313.574707
33 -73.073082 -110.175835 3966.807373 -53.081894 -61.549458 58.931393 3969.009766
[L_Hip]
31 5.766392 125.831482 872.656799 -152.293610 -41.845699 57.260994 881.701050
32 5.766392 125.831482 872.656799 -152.293610 -41.845695 57.260990 881.701050
33 5.766392 125.831482 872.656799 -152.293610 -41.845699 57.260994 881.701050
[R_Hip]
31 5.765438 125.836372 -872.654907 38.087826 49.812679 125.703735 881.699829
32 5.765438 125.836372 -872.654907 38.087841 49.812687 125.703735 881.699829
33 5.765438 125.836372 -872.654907 38.087841 49.812691 125.703735 881.699829
[Rear_Leg01]
31 -192.298416 -925.602966 -0.001907 -151.870697 -4.007703 -150.629608 945.367432
32 -192.298416 -925.602966 -0.001907 -149.088196 -5.897162 -151.521408 945.367432
33 -192.298416 -925.602966 -0.001907 -147.288147 -8.387381 -150.349472 945.367432
[Spine1]
31 290.604584 5.007505 0.000477 -4.355340 -7.291576 -12.078324 290.647736
32 290.604584 5.007505 0.000477 -7.663961 -7.558125 -11.809667 290.647736
33 290.604584 5.007505 0.000477 -10.569944 -5.549965 -8.150095 290.647736
[L_Leg01]
31 761.932007 -0.002384 -0.069261 11.035186 -0.099741 -94.558807 761.932068
32 761.932007 -0.002384 -0.069261 21.335075 0.885083 -83.395851 761.932068
33 761.932007 -0.002384 -0.069261 22.459669 -27.823120 -50.387341 761.932068
[L_Leg02]
31 1441.140503 -0.000954 -0.000715 2.659599 0.999833 -39.138195 1441.140503
32 1441.140503 -0.000954 -0.000715 9.642798 3.703369 -53.266232 1441.140503
33 1441.140503 -0.000954 -0.000715 1.996798 0.339606 -106.859566 1441.140503
[L_Leg03]
31 1686.963989 -0.000715 -0.000954 -0.128185 0.082002 144.667969 1686.963989
32 1686.963989 -0.000715 -0.000954 -0.122781 0.077525 143.482544 1686.963989
33 1686.963989 -0.000715 -0.000954 -0.083597 0.048381 133.467087 1686.963989
[L_Foot]
31 3041.570068 -30.715107 11.297464 -22.286762 18.527645 49.496384 3041.746094
32 3041.570068 -30.715107 11.297464 -21.392843 24.256180 36.453239 3041.746094
33 3041.570068 -30.715107 11.297464 -28.233101 20.734333 35.484810 3041.746094
[L_Toe1_01]
31 -188.216690 -224.732346 -21.137953 92.188454 -5.268838 -163.564346 293.899567
32 -188.216690 -224.732346 -21.137953 90.041840 -1.851140 -158.727676 293.899567
33 -188.216690 -224.732346 -21.137953 88.316437 1.530164 -153.797272 293.899567
[L_Toe2_01]
31 200.746536 -219.926590 148.838394 -51.571934 -27.188978 -78.302940 332.896027
32 200.746536 -219.926590 148.838394 -50.807236 -12.319359 -84.401497 332.896027
33 200.746536 -219.926590 148.838394 -53.354259 -1.337433 -88.818558 332.896027
[L_Toe3_01]
31 188.832520 -219.859131 -191.078659 -125.023010 3.360758 -84.168198 347.140900
32 188.832520 -219.859131 -191.078659 -119.565193 2.295530 -89.106766 347.140900
33 188.832520 -219.859131 -191.078659 -116.190292 8.920167 -91.965988 347.140900
[planeAlignerLeft]
31 73.565140 -616.033569 327.615936 169.209045 -79.195580 89.991348 701.599182
32 39.998425 -825.259949 201.015366 169.193069 -85.561821 90.005478 850.329895
33 -3.945507 -1023.228271 47.005878 -10.723409 -88.071770 -90.079781 1024.315063
[L_Toe1_02]
31 413.761139 0.000477 0.000000 0.001418 -21.721043 0.001418 413.761139
32 413.761139 0.000477 0.000000 0.001412 -22.464781 0.001412 413.761139
33 413.761139 0.000477 0.000000 0.001406 -23.208521 0.001406 413.761139
[L_Toe1_03]
31 464.317322 0.000358 -0.000089 0.022615 84.050407 0.022615 464.317322
32 464.317322 0.000358 -0.000089 0.015387 81.251427 0.015387 464.317322
33 464.317322 0.000358 -0.000089 0.010779 77.498047 0.010779 464.317322
[L_Toe2_02]
31 342.235809 -0.000477 0.000238 0.001184 -74.475151 0.001184 342.235809
32 342.235809 -0.000477 0.000238 -0.002389 -62.973225 -0.002389 342.235809
33 342.235809 -0.000477 0.000238 -0.002423 -56.999466 -0.002423 342.235809
[L_Toe2_03]
31 420.210846 -0.000715 0.000000 -179.946823 88.800575 -179.943329 420.210846
32 420.210846 -0.000715 0.000000 -0.000965 65.900238 -0.004541 420.210846
33 420.210846 -0.000715 0.000000 -0.000175 56.604076 -0.003826 420.210846
[L_Toe3_02]
31 329.270111 0.000954 0.000000 0.001177 -81.227501 0.001177 329.270111
32 329.270111 0.000954 0.000000 0.001188 -72.291786 0.001188 329.270111
33 329.270111 0.000954 0.000000 -0.002381 -64.639412 -0.002381 329.270111
[L_Toe3_03]
31 439.137451 -0.001907 0.000954 -179.997192 75.564095 -179.993668 439.137451
32 439.137451 -0.001907 0.000954 0.011415 78.197517 0.011415 439.137451
33 439.137451 -0.001907 0.000954 -0.000751 63.901653 -0.004340 439.137451
[planeLockWeightLeft]
31 0.000000 -0.000229 -0.000286 -0.011826 -0.004376 0.005620 0.000366
32 0.000000 -0.000267 -0.000296 -0.011826 -0.004376 0.005620 0.000398
33 0.000000 -0.000305 -0.000305 -0.011826 -0.004376 0.005620 0.000432
[R_Leg01]
31 761.455627 -0.001907 -0.000358 150.649368 -17.811924 -0.703416 761.455688
32 761.455627 -0.001907 -0.000358 154.415604 -18.187403 -13.344568 761.455688
33 761.455627 -0.001907 -0.000358 159.511414 -20.874725 -30.817495 761.455688
[R_Leg02]
31 1441.140625 0.000000 -0.000238 0.231568 0.069942 -70.968185 1441.140625
32 1441.140625 0.000000 -0.000238 0.192272 0.050377 -90.160339 1441.140625
33 1441.140625 0.000000 -0.000238 -0.156189 0.008741 -115.594330 1441.140625
[R_Leg03]
31 1686.963989 0.000954 0.001431 -0.049475 0.013174 96.175529 1686.963989
32 1686.963989 0.000954 0.001431 -0.000525 0.003643 109.990410 1686.963989
33 1686.963989 0.000954 0.001431 0.018539 -0.007859 115.946823 1686.963989
[R_Foot]
31 3041.560059 -30.531288 -11.204481 -8.880846 8.756652 27.421494 3041.734131
32 3041.560059 -30.531288 -11.204481 -6.931335 8.693652 27.202646 3041.734131
33 3041.560059 -30.531288 -11.204481 -5.062592 8.535544 32.411316 3041.734131
[planeAlignerRight]
31 7.058010 -686.099609 -487.521179 -25.447460 -64.905464 -74.689964 841.700317
32 116.486588 -458.632019 -463.281860 -25.447453 -64.905464 -74.689957 662.225464
33 133.574661 -384.089966 -426.307098 -25.447460 -64.905464 -74.689964 589.156250
[R_Toe1_01]
31 -188.383347 -224.864899 21.052242 62.611881 23.918301 -162.410782 294.101532
32 -188.383347 -224.864899 21.052242 51.281750 20.543835 -175.459610 294.101532
33 -188.383347 -224.864899 21.052242 45.094585 15.578395 172.645935 294.101532
[R_Toe2_01]
31 200.637817 -220.002121 -148.787384 -103.967560 42.920429 -72.722061 332.857574
32 200.637817 -220.002121 -148.787384 -90.071701 50.225773 -47.451618 332.857574
33 200.637817 -220.002121 -148.787384 -84.073112 51.531631 -37.495289 332.857574
[R_Toe3_01]
31 188.606735 -220.092957 191.126343 -62.938099 10.223347 -83.156166 347.192566
32 188.606735 -220.092957 191.126343 -58.725140 2.693309 -67.370773 347.192566
33 188.606735 -220.092957 191.126343 -57.283802 -0.731934 -62.546993 347.192566
[planeLockWeightRight]
31 999.999695 0.000305 -0.000379 -0.011823 -0.004379 -0.000027 999.999695
32 999.999695 0.000305 -0.000386 -0.011823 -0.004379 -0.000027 999.999695
33 999.999634 0.000305 -0.000394 -0.011823 -0.004379 -0.000027 999.999634
[R_Toe1_02]
31 413.762085 0.000477 -0.000119 0.001405 -23.258997 0.001405 413.762085
32 413.762085 0.000477 -0.000119 0.001394 -24.720217 0.001394 413.762085
33 413.762085 0.000477 -0.000119 0.001398 -24.128193 0.001398 413.762085
[R_Toe1_03]
31 464.317810 0.000000 0.001088 0.000778 33.256401 -0.003196 464.317810
32 464.317810 0.000000 0.001088 0.000597 39.162804 -0.003275 464.317810
33 464.317810 0.000000 0.001088 0.007850 72.804726 0.007850 464.317810
[R_Toe2_02]
31 342.234741 -0.000954 0.000238 -0.002337 -77.467461 -0.002337 342.234741
32 342.234741 -0.000954 0.000238 -0.002335 -78.269478 -0.002335 342.234741
33 342.234741 -0.000954 0.000238 -0.002334 -78.812500 -0.002334 342.234741
[R_Toe2_03]
31 420.210846 0.000715 -0.000268 -179.993042 77.307915 -179.996567 420.210846
32 420.210846 0.000715 -0.000268 -179.994125 73.939819 -179.997650 420.210846
33 420.210846 0.000715 -0.000268 -179.994736 71.057396 -179.998291 420.210846
[R_Toe3_02]
31 329.270355 -0.000477 -0.000954 0.001185 -74.220619 0.001185 329.270355
32 329.270355 -0.000477 -0.000954 0.001179 -79.338303 0.001179 329.270355
33 329.270355 -0.000477 -0.000954 0.001179 -79.415466 0.001179 329.270355
[R_Toe3_03]
31 439.137939 0.000238 0.001431 0.018204 82.607079 0.018204 439.137939
32 439.137939 0.000238 0.001431 -179.992630 82.772034 -179.989136 439.137939
33 439.137939 0.000238 0.001431 -179.992950 82.515015 -179.989441 439.137939
[Rear_Leg02]
31 1162.777710 -0.029802 0.005960 -0.925264 -9.043163 -64.759636 1162.777710
32 1162.777710 -0.029802 0.005960 0.489735 -5.690197 -75.356514 1162.777710
33 1162.777710 -0.029802 0.005960 0.556795 -2.520685 -82.818466 1162.777710
[Rear_Leg03]
31 607.192505 -0.013351 -0.073195 0.006585 -0.001738 57.792511 607.192505
32 607.192505 -0.013351 -0.073195 0.006511 -0.001995 62.288116 607.192505
33 607.192505 -0.013351 -0.073195 0.010622 -0.004830 65.264648 607.192505
[Rear_Leg04]
31 995.874512 -0.020504 -0.011921 -0.036765 -0.014774 46.215446 995.874573
32 995.874512 -0.020504 -0.011921 -0.039978 -0.016531 54.340881 995.874573
33 995.874512 -0.020504 -0.011921 -0.043239 -0.018770 60.133259 995.874573
[Rear_Foot]
31 3096.176270 -0.067472 -0.041425 -63.308971 80.208527 114.024269 3096.176270
32 3096.176270 -0.067472 -0.041425 -53.844498 83.386391 126.471802 3096.176270
33 3096.176270 -0.067472 -0.041425 -24.992504 84.416611 158.177673 3096.176270
[planeAlignerCenter]
31 74.243553 -124.233093 -624.345520 12.240772 -0.001473 179.998184 640.900391
32 94.506828 -120.466644 -659.130127 12.240772 -0.001473 179.998184 676.680359
33 114.766418 -110.847260 -696.199341 12.240772 -0.001473 179.998184 714.249207
[Rear_Toe1_01]
31 0.653352 83.966492 -371.173737 -2.252463 28.364096 85.820679 380.553192
32 0.653352 83.966492 -371.173737 -3.086953 31.068533 84.523773 380.553192
33 0.653352 83.966492 -371.173737 -3.956067 34.084999 83.201141 380.553192
[Rear_Toe2_01]
31 178.200760 -294.826019 -362.060547 -8.012434 22.553211 -65.264999 499.765686
32 178.200760 -294.826019 -362.060547 -7.658057 23.611172 -64.126938 499.765686
33 178.200760 -294.826019 -362.060547 -7.203836 24.998158 -62.865799 499.765686
[Rear_Toe3_01]
31 -153.359680 -308.780914 -362.060852 4.130350 23.881805 -106.771606 499.952881
32 -153.359680 -308.780914 -362.060852 4.329836 25.922209 -105.763832 499.952881
33 -153.359680 -308.780914 -362.060852 4.602508 28.184938 -104.796127 499.952881
[planeLockWeightCenter]
31 1000.000488 0.000305 -0.000064 -0.011814 -0.004373 -0.000015 1000.000488
32 1000.000488 0.000305 -0.000056 -0.011814 -0.004373 -0.000015 1000.000488
33 1000.000488 0.000305 -0.000048 -0.011814 -0.004373 -0.000015 1000.000488
[Rear_Toe1_02]
31 379.707825 0.194073 0.000477 -0.002645 -32.907402 -0.002645 379.707855
32 379.707825 0.194073 0.000477 -0.002641 -33.165234 -0.002641 379.707855
33 379.707825 0.194073 0.000477 -0.002637 -33.500801 -0.002637 379.707855
[Rear_Toe1_03]
31 500.129700 0.165701 0.000119 0.000000 89.549767 -0.003501 500.129761
32 500.129700 0.165701 0.000119 -0.012642 85.422691 -0.016142 500.129761
33 500.129700 0.165701 0.000119 0.004242 79.771126 0.002484 500.129761
[Rear_Toe2_02]
31 340.494507 0.000238 -0.000954 0.001245 -50.877968 0.001245 340.494507
32 340.494507 0.000238 -0.000954 0.001254 -48.680748 0.001254 340.494507
33 340.494507 0.000238 -0.000954 0.001260 -47.273293 0.001260 340.494507
[Rear_Toe2_03]
31 433.103577 0.000000 0.000238 -0.003401 45.286865 0.000379 433.103546
32 433.103577 0.000000 0.000238 -0.003346 42.907005 0.000468 433.103546
33 433.103577 0.000000 0.000238 -0.003315 41.391140 0.000522 433.103546
[Rear_Toe3_02]
31 340.494141 -0.000358 -0.000477 -0.002416 -58.105343 -0.002416 340.494171
32 340.494141 -0.000358 -0.000477 -0.002408 -59.444893 -0.002408 340.494171
33 340.494141 -0.000358 -0.000477 -0.002397 -61.390697 -0.002397 340.494171
[Rear_Toe3_03]
31 433.103577 0.001431 -0.000238 -0.000008 53.757973 -0.003687 433.103546
32 433.103577 0.001431 -0.000238 -0.000101 55.394077 -0.003764 433.103546
33 433.103577 0.001431 -0.000238 -0.000261 57.916821 -0.003899 433.103546
[Back_Bone]
31 1312.175781 -701.934692 0.000954 2.790756 -1.457651 -85.682373 1488.125488
32 1312.175781 -701.934692 0.000954 2.790756 -1.457651 -85.682373 1488.125488
33 1312.175781 -701.934692 0.000954 2.790756 -1.457651 -85.682373 1488.125488
[Head]
31 1406.159424 809.709290 0.001431 -1.623609 2.697531 7.613082 1622.625488
32 1406.159424 809.709290 0.001431 -1.623609 2.697531 7.613082 1622.625488
33 1406.159424 809.709290 0.001431 -1.623609 2.697531 7.613082 1622.625488
[Motor_Bone]
31 1158.364380 -417.834747 0.000477 3.394448 -1.301977 -115.970810 1231.419434
32 1158.364380 -417.834747 0.000477 3.394448 -1.301977 -115.970810 1231.419434
33 1158.364380 -417.834747 0.000477 3.394448 -1.301977 -115.970810 1231.419434
[Ping_Mechanism]
31 1306.303101 -429.328033 47.714069 0.000103 -0.000053 82.120995 1375.873169
32 1332.882935 -435.300842 58.306953 0.000103 -0.000053 82.120995 1403.375732
33 1343.921143 -448.918030 59.330528 0.000103 -0.000053 82.120995 1418.157837
[BN_LookIK]
31 193.241119 1380.371704 -0.002861 0.000000 89.965736 -31.038179 1393.832153
32 193.241119 1380.371704 -0.002861 0.000000 89.965736 -31.038179 1393.832153
33 193.241119 1380.371704 -0.002861 0.000000 89.965736 -31.038179 1393.832153
[bottomMouth]
31 -435.092926 615.759399 -0.000954 -0.000022 0.000016 73.527184 753.966492
32 -435.092926 615.759399 -0.000954 -0.000022 0.000016 73.527184 753.966492
33 -435.092926 615.759399 -0.000954 -0.000022 0.000016 73.527184 753.966492
[L_Mouth01]
31 554.440979 7.658243 838.222046 150.204178 23.759130 109.605339 1005.027161
32 554.440979 7.658243 838.222046 150.204178 23.759130 109.605339 1005.027161
33 554.440979 7.658243 838.222046 150.204178 23.759130 109.605339 1005.027161
[L_mouthFront]
31 551.629089 934.514771 339.150421 0.000081 2.804060 79.119301 1136.941284
32 551.629089 934.514771 339.150421 0.000081 2.804060 79.119301 1136.941284
33 551.629089 934.514771 339.150421 0.000081 2.804060 79.119301 1136.941284
[mouthGun]
31 55.332661 1627.420898 0.000000 0.000023 0.000009 -11.038128 1628.361328
32 55.332661 1627.420898 0.000000 0.000023 0.000009 -11.038128 1628.361328
33 55.332661 1627.420898 0.000000 0.000023 0.000009 -11.038128 1628.361328
[R_Mouth01]
31 554.442383 7.659197 -838.223938 29.795891 -23.759109 109.605331 1005.029541
32 554.442383 7.659197 -838.223938 29.795891 -23.759109 109.605331 1005.029541
33 554.442383 7.659197 -838.223938 29.795891 -23.759109 109.605331 1005.029541
[R_mouthFront]
31 551.629089 934.514282 -339.151367 0.000029 -2.803930 79.119133 1136.941162
32 551.629089 934.514282 -339.151367 0.000029 -2.803930 79.119133 1136.941162
33 551.629089 934.514282 -339.151367 0.000029 -2.803930 79.119133 1136.941162
[TopMouth]
31 461.269867 -56.106091 -0.008583 -0.000059 -0.000268 92.025169 464.669525
32 461.269867 -56.106091 -0.008583 -0.000059 -0.000268 92.025169 464.669525
33 461.269867 -56.106091 -0.008583 -0.000059 -0.000268 92.025169 464.669525
[weapon_bone]
31 -987.239868 1448.372803 0.001431 0.000000 89.965736 -31.038221 1752.833740
32 -987.239868 1448.372803 0.001431 0.000000 89.965736 -31.038221 1752.833740
33 -987.239868 1448.372803 0.001431 0.000000 89.965736 -31.038221 1752.833740
